# xmcd
# 
# Track frame offsets:
#     150
#     17197
#     30845
#     42405
#     54982
#     68175
#     83070
#     95925
#     108912
#     122150
#     146220
#     159372
#     185732
#     199932
#     214082
#     228245
#     241430
#     256260
#     274767
#     290357
#     301445
#     324895
# 
# Disc length: 4510
# 
# Revision: 8
# Processed by: cddbd v1.5.2PL0 Copyright (c) Steve Scherf et al.
# Submitted via: fre:ac v1.1beta1pre5
# 
DISCID=3c119c16
DTITLE=Various Artist - Les plus grands moments du jazz CD1
DYEAR=2003
DGENRE=Jazz
TTITLE0=Duke Ellington and Count Basie - Take the A train
TTITLE1=Dave Brubeck - Blue rondo a la turk
TTITLE2=Miles Davis - Round midnight
TTITLE3=Billie Holiday - Don't explain
TTITLE4=Count Basie - Beaver junction
TTITLE5=Louis Armstrong - Mack the knife
TTITLE6=Neal Hefti - Girl talk
TTITLE7=Aretha Franklin - It ain' t necessarily so
TTITLE8=Dave Brubeck - Take five
TTITLE9=Stan Getz featuring Joao Gilberto - Ligia
TTITLE10=Count Basie - One o'clock jump
TTITLE11=Stéphane Grappelli - Baubles, bangles, and beads
TTITLE12=Woody Herman - Four brothers
TTITLE13=Lionel Hampton - Blue moon
TTITLE14=Louis Armstrong - Cabaret
TTITLE15=Benny Goodman - Body and soul
TTITLE16=Miles Davis with Gil Evans - Summertime
TTITLE17=Gerry Mulligan - My funny valentine
TTITLE18=Glenn Miller Orchestra - In the mood
TTITLE19=Mahalia Jackson - Joshua fit the battle of Jericho
TTITLE20=Dave Brubeck - It's a raggy waltz
TTITLE21=Duke Ellington - Happy go lucky local
EXTD=YEAR: 2003
EXTT0=
EXTT1=
EXTT2=
EXTT3=
EXTT4=
EXTT5=
EXTT6=
EXTT7=
EXTT8=
EXTT9=
EXTT10=
EXTT11=
EXTT12=
EXTT13=
EXTT14=
EXTT15=
EXTT16=
EXTT17=
EXTT18=
EXTT19=
EXTT20=
EXTT21=
PLAYORDER=
